<?xml version="1.0" encoding="utf-8"?>
<!-- Generator: Adobe Illustrator 27.5.0, SVG Export Plug-In . SVG Version: 6.00 Build 0)  -->
<svg version="1.1" id="katman_1" xmlns="http://www.w3.org/2000/svg" xmlns:xlink="http://www.w3.org/1999/xlink" x="0px" y="0px"
	 viewBox="0 0 841.89 595.28" style="enable-background:new 0 0 841.89 595.28;" xml:space="preserve">
<style type="text/css">
	.st0{fill:#122E5C;}
	.st1{fill:#00785F;}
	.st2{clip-path:url(#SVGID_00000018917772253514391210000007322086714789779608_);}
	.st3{fill:url(#SVGID_00000006676545466830590190000009932331379828067995_);}
</style>
<g id="ef12fc4c-cbf6-4cf0-9658-01022d413046">
	<g id="efbcb3e6-7565-4b75-83cf-8e3945435126">
		<path class="st0" d="M53.9,293.83h18.93c10.61,0,21.22,0,29.47,7.37c5.04,4.61,7.99,11.07,8.18,17.9
			c0.3,7.67-3.9,14.81-10.76,18.27c10.41,3.06,17.25,12.98,16.43,23.8c0.14,9.14-4.35,17.73-11.94,22.84
			c-7.57,4.14-16.14,6.1-24.75,5.67H53.9V293.83z M71.66,331.11h5.82c4.13,0,15.32,0,15.32-10.31c0-5.75-3.68-10.39-13.78-10.39
			h-7.37V331.11z M71.66,373.11h8.91c3.54,0,17.9,0,17.9-12.52c0-3.9-1.92-12.89-17.46-12.89h-9.36V373.11z"/>
		<path class="st0" d="M158.23,293.83h13.56l40.15,95.78h-19.23l-10.24-24.46h-34.33l-10.24,24.53h-19.6L158.23,293.83z
			 M154.1,348.2h22.1l-10.9-29.47l0,0L154.1,348.2z"/>
		<polygon class="st0" points="219.75,293.83 239.93,293.83 279.64,363.53 279.87,363.53 279.87,293.83 297.62,293.83 
			297.62,389.68 277.8,389.68 237.8,319.99 237.5,319.99 237.5,389.68 219.75,389.68 		"/>
		<path class="st0" d="M402.68,363.01c-7.85,17.39-25.13,28.59-44.21,28.66c-27.63-0.28-49.91-22.69-50.03-50.32
			c0.24-27.3,22.36-49.35,49.66-49.51c19.58-0.05,37.32,11.53,45.16,29.47h-20.26c-10.74-13.76-30.6-16.21-44.36-5.47
			c-7.92,6.18-12.43,15.76-12.15,25.8c-0.02,17.89,14.04,32.62,31.9,33.45c9.44-0.2,18.29-4.64,24.09-12.08H402.68z"/>
		<path class="st0" d="M456.83,291.84c27.59,0.08,49.89,22.51,49.8,50.1c-0.08,27.59-22.51,49.89-50.1,49.8
			c-27.44-0.08-49.68-22.29-49.8-49.73c-0.08-27.63,22.25-50.09,49.88-50.17C456.69,291.84,456.76,291.84,456.83,291.84
			 M456.83,375.1c18.38,0.53,33.72-13.95,34.25-32.33c0.53-18.38-13.95-33.72-32.33-34.25c-18.38-0.53-33.72,13.95-34.25,32.33
			c-0.01,0.34-0.01,0.68-0.01,1.02C424.37,359.93,438.78,374.73,456.83,375.1"/>
		<path class="st1" d="M546.28,293.83h18.93c10.61,0,21.22,0,29.47,7.37c5.04,4.61,7.99,11.07,8.18,17.9
			c0.3,7.67-3.9,14.81-10.76,18.27c10.41,3.06,17.25,12.98,16.43,23.8c0.14,9.14-4.35,17.73-11.94,22.84
			c-7.57,4.14-16.14,6.1-24.75,5.67h-25.57V293.83z M564.03,331.11h5.6c4.13,0,15.32,0,15.32-10.31c0-5.75-3.68-10.39-13.78-10.39
			h-7.37L564.03,331.11z M564.03,373.11h8.91c3.54,0,17.9,0,17.9-12.52c0-3.9-1.92-12.89-17.53-12.89h-9.28L564.03,373.11z"/>
		<path class="st1" d="M619.07,293.83h24.24c9.99-1.35,20.1,1.3,28.14,7.37c6.13,5.67,9.44,13.76,9.06,22.1
			c0.35,8.34-2.96,16.41-9.06,22.1c-8.06,6.04-18.16,8.68-28.14,7.37h-6.34v36.84h-17.9V293.83z M636.82,336.56h5.75
			c7.37,0,20.04-0.52,20.04-13.04s-11.94-13.11-19.3-13.11h-6.34L636.82,336.56z"/>
		<polygon class="st1" points="687.88,293.83 712.49,293.83 738.05,366.4 738.27,366.4 763.54,293.83 788.15,293.83 788.15,389.68 
			770.39,389.68 770.39,317.78 770.03,317.78 745.57,389.68 730.54,389.68 705.93,317.78 705.63,317.78 705.63,389.68 
			687.88,389.68 		"/>
		<g>
			<defs>
				<path id="SVGID_1_" d="M225.86,270.62h107.49c40.44-31.7,90.52-48.6,141.9-47.89c51.06-0.76,100.87,15.87,141.24,47.15h20.92
					c-44.72-40.37-120.02-66.82-205.33-66.82S270.58,229.88,225.86,270.62z"/>
			</defs>
			<clipPath id="SVGID_00000103242969003934076510000013467157413886554804_">
				<use xlink:href="#SVGID_1_"  style="overflow:visible;"/>
			</clipPath>
			<g style="clip-path:url(#SVGID_00000103242969003934076510000013467157413886554804_);">
				
					<linearGradient id="SVGID_00000001642135310477375660000011383936030404112058_" gradientUnits="userSpaceOnUse" x1="4323.4888" y1="4601.8174" x2="4332.1543" y2="4601.8174" gradientTransform="matrix(47.7524 0 0 -47.7524 -206101 219984.4531)">
					<stop  offset="0" style="stop-color:#122E5C"/>
					<stop  offset="0.17" style="stop-color:#122E5C"/>
					<stop  offset="0.47" style="stop-color:#075B5E"/>
					<stop  offset="0.7" style="stop-color:#00785F"/>
					<stop  offset="1" style="stop-color:#00785F"/>
				</linearGradient>
				
					<rect x="225.86" y="203.06" style="fill:url(#SVGID_00000001642135310477375660000011383936030404112058_);" width="411.55" height="67.56"/>
			</g>
		</g>
	</g>
</g>
</svg>
